<?xml version="1.0" encoding="utf-8"?>
<!-- Generator: Adobe Illustrator 16.0.4, SVG Export Plug-In . SVG Version: 6.00 Build 0)  -->
<!DOCTYPE svg PUBLIC "-//W3C//DTD SVG 1.1//EN" "http://www.w3.org/Graphics/SVG/1.1/DTD/svg11.dtd">
<svg version="1.1" id="Ebene_1" xmlns="http://www.w3.org/2000/svg" xmlns:xlink="http://www.w3.org/1999/xlink" x="0px" y="0px"
	 width="188px" height="188px" viewBox="0 0 283.46 283.46" enable-background="new 0 0 283.46 283.46" xml:space="preserve">
    <defs>
        <style>
            .path {
                fill: white;
            }
        </style>
    </defs>
    <g>
        <path class="path" d="M188.599,177.5l-94.652,43.105c-1.586,0.723-2.285,2.594-1.563,4.18c0.528,1.16,1.674,1.848,2.873,1.848
            c0.437,0,0.882-0.092,1.306-0.284l94.651-43.104c1.584-0.723,2.285-2.594,1.563-4.18
            C192.055,177.478,190.185,176.783,188.599,177.5z M256.498,190.017c-0.319-1.713-1.965-2.842-3.68-2.523
            c-2.941,0.551-5.326,0.084-7.285-1.418c-4.434-3.402-6.65-11.604-7.961-20.781c2.385-4.43,4.999-9.811,7.887-16.355
            c0.441-1,0.814-1.848,1.113-2.5c2.338-5.119,5.69-14.393,7.439-23.683c2.131-11.31,1.123-18.852-2.992-22.413
            c-4.32-3.738-11.126-2.658-20.232,3.213l-1.904,1.228c-0.414,0.269-0.825,0.533-1.234,0.796
            c3.402-7.492,8.719-19.873,10.354-27.509c0.357-1.671-0.68-3.321-2.34-3.725c-1.654-0.405-3.341,0.589-3.789,2.238
            c-0.053,0.193-5.56,19.34-15.467,17.829c-1.105-0.168-1.365-0.598-1.552-1.061c-1.04-2.576,0.353-7.662,2.481-12.908
            c3.086-6.121,6.191-12.018,8.856-16.89c0.006-0.01,0.011-0.021,0.017-0.03c0.031-0.062,0.062-0.125,0.09-0.189
            c0.016-0.033,0.031-0.064,0.045-0.098c0.025-0.062,0.047-0.125,0.068-0.188c0.012-0.038,0.026-0.074,0.036-0.111
            c0.019-0.059,0.031-0.115,0.046-0.174c0.01-0.043,0.021-0.088,0.028-0.132c0.011-0.052,0.017-0.104,0.022-0.155
            c0.009-0.051,0.017-0.102,0.021-0.151c0.004-0.048,0.005-0.097,0.007-0.145c0.003-0.054,0.007-0.106,0.007-0.159
            c0-0.05-0.004-0.098-0.008-0.146c-0.003-0.053-0.005-0.104-0.01-0.155c-0.005-0.053-0.016-0.105-0.021-0.158
            c-0.008-0.046-0.015-0.093-0.021-0.138c-0.012-0.059-0.027-0.116-0.043-0.174c-0.01-0.039-0.02-0.078-0.029-0.116
            c-0.02-0.062-0.041-0.122-0.064-0.183c-0.012-0.035-0.022-0.068-0.036-0.102c-0.023-0.061-0.054-0.119-0.08-0.178
            c-0.017-0.033-0.031-0.066-0.048-0.1c-0.028-0.055-0.061-0.106-0.094-0.159c-0.021-0.036-0.041-0.072-0.063-0.107
            c-0.029-0.046-0.062-0.089-0.097-0.134c-0.028-0.039-0.059-0.08-0.09-0.119c-0.028-0.037-0.062-0.072-0.094-0.107
            c-0.039-0.044-0.078-0.088-0.119-0.129c-0.029-0.031-0.062-0.06-0.094-0.089c-0.047-0.043-0.093-0.085-0.143-0.125
            c-0.01-0.009-0.02-0.019-0.029-0.026c-0.025-0.021-0.057-0.039-0.084-0.061c-0.045-0.033-0.09-0.067-0.137-0.1
            c-0.051-0.033-0.104-0.063-0.154-0.094c-0.027-0.017-0.053-0.035-0.081-0.051c-0.011-0.006-0.022-0.01-0.032-0.016
            c-0.062-0.033-0.125-0.062-0.188-0.09c-0.032-0.015-0.062-0.03-0.098-0.044c-0.063-0.026-0.131-0.05-0.197-0.071
            c-0.032-0.012-0.065-0.023-0.1-0.033c-0.062-0.02-0.127-0.034-0.191-0.049c-0.036-0.009-0.073-0.019-0.11-0.025
            c-0.062-0.012-0.121-0.02-0.183-0.027c-0.041-0.006-0.082-0.013-0.125-0.016c-0.057-0.006-0.114-0.008-0.174-0.01
            c-0.043-0.002-0.086-0.004-0.131-0.004c-0.059,0-0.117,0.004-0.176,0.008c-0.041,0.002-0.084,0.004-0.125,0.008
            c-0.062,0.006-0.123,0.016-0.184,0.025c-0.039,0.007-0.076,0.012-0.113,0.019c-0.064,0.013-0.128,0.03-0.191,0.046
            c-0.033,0.01-0.067,0.017-0.102,0.027c-0.062,0.019-0.127,0.042-0.189,0.064c-0.031,0.012-0.063,0.023-0.096,0.035
            c-0.061,0.025-0.117,0.053-0.177,0.08c-0.034,0.018-0.067,0.031-0.103,0.05c-0.052,0.026-0.102,0.058-0.15,0.087
            c-0.039,0.023-0.079,0.047-0.117,0.071c-0.041,0.027-0.081,0.058-0.121,0.087c-0.045,0.033-0.09,0.064-0.133,0.1
            c-0.032,0.026-0.062,0.055-0.094,0.082c-0.049,0.043-0.098,0.086-0.144,0.131c-0.024,0.026-0.051,0.055-0.075,0.082
            c-0.047,0.05-0.094,0.102-0.138,0.154c-0.008,0.01-0.016,0.018-0.022,0.026c-0.004,0.004-0.017,0.022-0.031,0.046
            c-0.1,0.129-0.191,0.264-0.271,0.41c-0.008,0.012-0.016,0.026-0.021,0.038c-1.249,1.94-5.816,9.315-9.04,17.222
            c-7.276,14.397-16.171,33.464-16.171,40.646c0,2.213,0,6.334,3.162,8.058c2.677,1.458,5.754,0.758,12.811-3.274
            c-2.492,4.045-5.418,8.498-8.52,12.803c-13.363,18.55-20.195,21.322-22.512,21.654c-1.272,0.183-2.091-0.18-2.912-1.291
            c-0.58-0.782-1.09-1.705-1.537-2.731c1.15-1.578,2.244-3.17,3.24-4.737c0.018-0.026,0.034-0.057,0.051-0.084
            c0.187-0.312,4.586-7.74,8.609-16.251c7.758-16.402,6.987-21.805,5.735-24.439c-0.865-1.819-2.431-3.012-4.418-3.406
            c-0.11-0.029-0.224-0.053-0.337-0.07c-4.793-0.713-9.648,2.609-13.692,9.346c-3.729,6.217-6.463,14.833-7.31,23.047
            c-0.596,5.803-0.226,11.099,1.035,15.558c-6.979,8.966-14.317,14.945-17.029,14.396c-0.549-0.109-1.09-1.275-1.379-2.969
            c-0.525-3.076-0.586-6.07-0.422-8.941c24.244-31.315,28.127-74.817,28.281-76.669c0.146-1.736-1.145-3.26-2.881-3.406
            c-1.742-0.141-3.261,1.145-3.406,2.881c-0.033,0.391-3.144,35.059-20.422,63.722c0.424-5.162-0.209-9.771-5.246-11.681
            c-1.184-0.449-3.063-0.684-5.158,0.859l20.591-79.539c0.011-0.045,0.02-0.09,0.027-0.135c0.012-0.054,0.023-0.107,0.033-0.162
            c0.008-0.053,0.012-0.105,0.018-0.158c0.007-0.052,0.014-0.104,0.017-0.156c0.004-0.056,0.002-0.111,0.002-0.166
            c0.001-0.049,0.003-0.097,0.001-0.145c-0.003-0.059-0.009-0.115-0.015-0.174c-0.005-0.043-0.007-0.088-0.015-0.133
            c-0.008-0.06-0.021-0.118-0.031-0.177c-0.01-0.041-0.016-0.082-0.024-0.122c-0.014-0.061-0.032-0.119-0.051-0.178
            c-0.013-0.038-0.021-0.076-0.034-0.114c-0.021-0.06-0.045-0.116-0.068-0.175c-0.016-0.035-0.027-0.071-0.043-0.105
            c-0.027-0.058-0.058-0.113-0.086-0.168c-0.019-0.034-0.035-0.068-0.054-0.102c-0.03-0.055-0.065-0.105-0.103-0.158
            c-0.021-0.031-0.041-0.065-0.062-0.097c-0.036-0.05-0.075-0.099-0.114-0.147c-0.024-0.029-0.047-0.061-0.072-0.09
            c-0.041-0.048-0.086-0.092-0.129-0.137c-0.027-0.027-0.055-0.057-0.082-0.084c-0.047-0.043-0.096-0.083-0.144-0.124
            c-0.03-0.024-0.06-0.052-0.09-0.075c-0.05-0.039-0.104-0.076-0.158-0.111c-0.03-0.021-0.062-0.045-0.094-0.065
            c-0.056-0.035-0.114-0.067-0.172-0.099c-0.033-0.018-0.065-0.037-0.101-0.055c-0.061-0.029-0.123-0.056-0.187-0.082
            c-0.034-0.015-0.067-0.031-0.103-0.045c-0.064-0.023-0.131-0.044-0.197-0.064c-0.033-0.01-0.064-0.022-0.098-0.031
            c-0.004-0.002-0.011-0.002-0.015-0.004c-0.008-0.002-0.017-0.005-0.022-0.007c-0.058-0.015-0.113-0.023-0.17-0.034
            c-0.041-0.009-0.082-0.02-0.125-0.025c-0.062-0.011-0.127-0.016-0.191-0.022c-0.04-0.005-0.081-0.011-0.122-0.013
            c-0.067-0.004-0.134-0.003-0.2-0.003c-0.037,0.001-0.074-0.001-0.109,0c-0.071,0.003-0.143,0.011-0.215,0.019
            c-0.029,0.003-0.061,0.004-0.092,0.009c-0.076,0.011-0.15,0.026-0.225,0.042c-0.024,0.005-0.049,0.008-0.074,0.014
            c-0.077,0.02-0.154,0.043-0.23,0.066c-0.02,0.007-0.039,0.012-0.06,0.019c-0.078,0.026-0.153,0.058-0.229,0.09
            c-0.018,0.009-0.035,0.015-0.053,0.022c-0.074,0.033-0.146,0.072-0.219,0.111c-0.018,0.01-0.034,0.018-0.051,0.026
            c-0.069,0.04-0.137,0.083-0.201,0.128c-0.02,0.013-0.037,0.023-0.055,0.037c-0.062,0.043-0.121,0.09-0.18,0.139
            c-0.02,0.017-0.041,0.031-0.061,0.049c-0.055,0.047-0.104,0.096-0.155,0.146c-0.022,0.021-0.045,0.043-0.067,0.065
            c-0.045,0.048-0.086,0.099-0.129,0.149c-0.022,0.028-0.049,0.055-0.07,0.084c-0.037,0.048-0.071,0.099-0.105,0.148
            c-0.023,0.035-0.05,0.07-0.072,0.105c-0.029,0.049-0.058,0.098-0.084,0.148c-0.023,0.041-0.049,0.082-0.069,0.126
            c-0.023,0.048-0.044,0.098-0.065,0.147c-0.021,0.047-0.043,0.094-0.062,0.144c-0.018,0.05-0.031,0.101-0.049,0.151
            c-0.015,0.045-0.031,0.09-0.045,0.137c-0.07,0.262-7.218,26.451-15.764,52.958c-13.854,42.975-20.299,52.51-22.495,54.621
            c-0.05-0.121-0.103-0.26-0.158-0.416c-1.25-4.346-0.929-9.723,0.152-15.083c1.354-2.514,2.943-5.514,4.499-8.556
            c8.543-16.706,7.805-18.341,7.091-19.923c-0.42-0.932-1.19-1.614-2.138-1.918c-0.101-0.034-0.205-0.062-0.311-0.086
            c-0.008-0.002-0.016-0.006-0.024-0.008c-0.001,0-0.001,0-0.002,0l0,0c-2.146-0.463-3.85,0.797-6.213,4.857
            c-0.645-2.277-1.851-3.792-3.618-4.524c-3.592-1.491-7.853,0.954-12.663,7.269c-3.883,5.099-7.852,12.316-11.176,20.322
            c-3.28,7.908-5.567,15.715-6.459,22.022c-2.23,0.036-4.062-0.666-5.188-2.039c-3.416-4.166,2.759-25.693,3.475-28.134
            c4.01-13.684,10.66-31.043,17.789-46.438c0.965-2.084,2.103-4.474,3.314-7.017c11.868-24.922,13.792-30.969,10.839-34.049
            c-0.593-0.617-2.272-1.93-5.057-0.744c-2.341,0.995-4.269,2.217-6.133,3.398c-2.681,1.701-4.986,3.156-8.099,3.748
            c0.248-5.547-0.866-7.605-2.17-8.727c-1.128-0.97-2.618-1.264-4.051-0.832c-0.116,0.031-0.232,0.066-0.348,0.111
            c-0.002,0.001-0.005,0.002-0.008,0.002c-0.003,0.002-0.006,0.004-0.009,0.004c-3.161,1.244-5.708,6.379-5.144,10.376
            c0.379,2.687,2.13,4.63,4.679,5.308c-0.37,2.287-0.9,5.051-1.652,8.384c-5.49,24.329-22.506,68.084-34.86,98.318
            c0.337-2.199,0.631-4.379,0.863-6.5c0.787-7.189,2.373-18.601,3.979-29.175c2.801-8.373,4.443-16.096,4.901-23.113
            c0.243-3.732,0.42-6.428-2.5-7.055c-1.018-0.217-2.971,0.022-3.823,2.307c-0.001,0.002-0.001,0.005-0.002,0.008
            c-0.889,2.397-2.834,13.869-4.703,26.201c-10.081,29.735-32.396,59.255-32.677,59.624c-1.056,1.385-0.789,3.363,0.597,4.42
            c0.571,0.436,1.243,0.646,1.911,0.646c0.95,0,1.889-0.428,2.51-1.242c0.37-0.484,9.154-12.051,18.369-28.299
            c2.128-3.752,4.089-7.418,5.889-10.998c-0.296,2.32-0.541,4.354-0.72,5.99c-1.919,17.539-8.409,40.141-8.474,40.366
            c-0.461,1.599,0.397,3.281,1.963,3.845c0.352,0.127,0.712,0.188,1.068,0.188c1.224,0,2.38-0.717,2.894-1.9
            c0.099-0.229,10.073-23.223,21.027-50.839c14.74-37.162,24.142-64.551,27.945-81.403c0.842-3.729,1.444-6.878,1.856-9.556
            c5.331-0.554,8.923-2.818,12.17-4.877c0.688-0.438,1.361-0.863,2.042-1.27c-1.98,6.169-7.703,18.188-10.767,24.621
            c-1.221,2.565-2.369,4.977-3.343,7.078c-7.361,15.896-13.965,33.141-18.119,47.314c-3.402,11.61-7.343,27.757-2.3,33.909
            c2.261,2.76,5.737,4.272,9.698,4.338c0.206,4.282,1.584,6.983,4.134,8.041c0.681,0.282,1.386,0.424,2.114,0.422
            c3.113,0,6.651-2.576,10.549-7.69c2.608-3.425,5.254-7.808,7.718-12.74c0.167,1.076,0.388,2.127,0.683,3.137
            c0.013,0.045,0.027,0.088,0.042,0.133c1.471,4.311,3.894,5.254,5.732,5.254c0.057,0,0.115-0.002,0.171-0.004
            c4.711-0.146,8.807-6.971,13.388-17.354l-12.351,47.705c-0.436,1.687,0.577,3.408,2.263,3.845
            c0.266,0.067,0.531,0.103,0.793,0.103c1.403,0,2.684-0.941,3.052-2.363l9.203-35.551c0.499,1.19,1.223,2.151,2.226,2.791
            c0.9,0.571,1.825,0.817,2.753,0.817c1.818,0,3.646-0.944,5.303-2.229c0.094,1.09,0.228,2.19,0.418,3.311
            c0.996,5.828,4.006,7.617,6.354,8.09c0.49,0.098,0.994,0.146,1.514,0.146c3.818,0,8.422-2.685,14.002-8.156
            c1.844-1.807,3.74-3.881,5.59-6.09c0.231,0.359,0.472,0.709,0.722,1.045c1.879,2.539,4.479,3.889,7.431,3.887
            c0.473,0,0.956-0.033,1.444-0.104c13.909-1.99,34.34-34.208,41.334-47.594c2.85-1.817,6.062-3.89,9.707-6.24l1.903-1.228
            c6.194-3.995,10.816-5.359,12.685-3.746c4.833,4.184-0.265,26.022-6.058,38.705c-0.308,0.672-0.692,1.544-1.146,2.574
            c-1.15,2.607-2.271,5.062-3.363,7.363c-0.154-1.85-0.298-3.674-0.436-5.445c-0.562-7.25-1.098-14.097-2.309-18.829
            c-1.096-4.284-3.455-5.431-5.242-5.638c-4.098-0.467-8.616,3.93-13.412,13.101c-6.743,12.897-13.719,35.552-5.301,45.095
            c2.651,3.003,5.421,3.797,7.612,3.797c0.507,0,0.983-0.043,1.419-0.109c3.545-0.551,7.87-2.77,14.006-12.098
            c1.695,7.522,4.392,13.896,9.03,17.455c1.906,1.463,4.036,2.383,6.371,2.756c0.437,0.615,1.073,1.168,2.006,1.526
            c2.563,0.984,5.202-1.354,6.081-3.231C256.498,191.511,256.638,190.771,256.498,190.017z M92.633,169.511
            c-0.253-0.602-0.391-1.645-0.378-3.068c1.733-0.594,3.956-1.586,6.432-3.244C95.968,166.992,93.766,169.019,92.633,169.511z
             M113.757,127.656c-5.227,18.063-13.44,27.771-20.642,31.586c0.931-4.701,2.678-10.723,5.558-17.666
            c6.113-14.725,12.893-22.924,15.5-24.002C114.543,118.614,114.927,121.63,113.757,127.656z M144.705,145.815
            c-0.302,2.106-0.631,4.421-0.848,6.884c-2.459,3.012-3.978,4.215-4.76,4.691c-0.351-1.58-0.362-5.359,0.967-10.729
            c1.469-5.937,3.469-9.473,4.518-10.526C145.785,137.164,145.527,140.073,144.705,145.815z M180.519,117.252
            c2.531-4.215,5.333-6.648,7.354-6.351c0.004,0.001,0.006,0.001,0.008,0.001c0.227,0.588,1.09,4.348-5.521,18.463
            c-3.482,7.437-7.447,14.316-8.371,15.898C173.271,136.825,175.22,126.084,180.519,117.252z M219.009,109.169
            c-0.045,0.093-0.086,0.188-0.121,0.284c-0.225,0.606-0.594,1.434-1.085,2.438c-7.935,5.029-13.634,8.41-15.927,8.891
            c-0.07-0.424-0.141-1.146-0.141-2.35c0-3.471,3.286-11.928,7.753-21.717c1.218,2.146,3.298,3.53,5.972,3.936
            c2.994,0.451,5.648-0.052,7.998-1.172C221.039,104.965,219.055,109.076,219.009,109.169z M217.69,179.488
            c-0.776,0.119-1.858,0.045-3.335-1.627c-3.152-3.572-2.993-12.719,0.413-23.873c3.889-12.733,9.858-21.813,12.501-23.593
            c0.062,0.168,0.13,0.382,0.199,0.648c1.074,4.203,1.586,10.785,2.129,17.753c0.391,5.033,0.799,10.271,1.443,15.326
            C225.679,173.785,221.208,178.943,217.69,179.488z"/>
    </g>
</svg>
